<svg viewBox="0 0 99.995209 93.948372">
   <g transform="translate(-318.1473,223.54414)">
      <path d="m 322.00979,-223.54402 a 3.8681892,3.8681892 0 0 0 0,7.73637 h 13.46604 l 2.98726,12.53101 6.49351,27.26829 a 3.864894,3.864894 0 0 0 0.0409,0.14245 l 2.96449,12.42837 c 0.42384,1.77677 1.15912,3.58007 2.55993,5.131 1.40081,1.5509 3.66913,2.72511 6.09449,2.72511 h 43.37368 c 2.42566,0 4.69369,-1.17421 6.0945,-2.72511 1.4008,-1.55093 2.13638,-3.35423 2.55992,-5.131 l 9.498,-39.8392 H 346.4056 l -4.11602,-17.29142 a 3.8616855,3.8616855 0 0 0 -3.77421,-2.97596 z m 26.23648,27.98665 h 60.11215 l -7.2288,30.32979 c -0.20432,0.86162 -0.56248,1.50933 -0.77556,1.74454 -0.21017,0.23498 -0.0759,0.18244 -0.36487,0.18244 h -43.37368 c -0.28898,0 -0.15179,0.0549 -0.36487,-0.18244 -0.21309,-0.23497 -0.5692,-0.88257 -0.77557,-1.74454 l -2.99865,-12.57091 z m 8.14681,48.27114 a 8.8457797,8.8457797 0 0 0 -8.84824,8.84809 8.8457797,8.8457797 0 0 0 8.84824,8.84237 8.8457797,8.8457797 0 0 0 8.84795,-8.84237 8.8457797,8.8457797 0 0 0 -8.84795,-8.84809 z m 44.0465,0 a 8.8457797,8.8457797 0 0 0 -8.84794,8.84809 8.8457797,8.8457797 0 0 0 8.84794,8.84237 8.8457797,8.8457797 0 0 0 8.8424,-8.84237 8.8457797,8.8457797 0 0 0 -8.8424,-8.84809 z" />
   </g>
</svg>
